<svg width="10" height="10" viewBox="0 0 10 10" fill="none" xmlns="http://www.w3.org/2000/svg">
<path fill-rule="evenodd" clip-rule="evenodd" d="M1.17838 0.318871C1.28774 0.209671 1.41905 0.124961 1.56362 0.0703534C1.70819 0.0157457 1.86271 -0.00751222 2.01694 0.00212086C2.17118 0.0117539 2.32161 0.054058 2.45826 0.12623C2.59491 0.198401 2.71466 0.298793 2.80958 0.420751L3.93142 1.86207C4.13704 2.12645 4.20954 2.47084 4.12829 2.79586L3.78643 4.16467C3.76875 4.23557 3.76971 4.30983 3.7892 4.38025C3.80869 4.45067 3.84606 4.51485 3.89767 4.56657L5.43325 6.10226C5.48502 6.15398 5.5493 6.19142 5.61984 6.21091C5.69037 6.23041 5.76475 6.23131 5.83574 6.21352L7.20382 5.87163C7.3642 5.83152 7.53159 5.82841 7.69335 5.86252C7.85511 5.89663 8.007 5.96706 8.13754 6.06851L9.57874 7.18981C10.0969 7.59295 10.1444 8.35861 9.68062 8.82176L9.03439 9.46804C8.5719 9.93056 7.88067 10.1337 7.23632 9.90681C5.58711 9.32649 4.08971 8.38226 2.8552 7.14418C1.6173 5.90976 0.673153 4.41247 0.0927914 2.76336C-0.133451 2.11958 0.0696672 1.42767 0.532153 0.965151L1.17838 0.318871Z" fill="#008139"/>
</svg>
